<?xml version="1.0" encoding="utf-8"?>
<!-- Generator: Adobe Illustrator 24.2.0, SVG Export Plug-In . SVG Version: 6.00 Build 0)  -->
<svg version="1.1" id="Layer_1" xmlns="http://www.w3.org/2000/svg" xmlns:xlink="http://www.w3.org/1999/xlink" x="0px" y="0px"
	 viewBox="0 0 636 385" enable-background="new 0 0 636 385" xml:space="preserve">
<g>
	<g>
		<path fill="#F36F21" d="M286.58,50.02c12.18-12.65,29.77-20.09,47.37-19.53c29.57,0.02,59.14,0.01,88.72,0.01
			c-20.36,88.34-40.78,176.66-61.18,264.99c-3.49,16.24-13.4,30.97-27.11,40.35c-10.9,7.55-24.18,11.61-37.44,11.42
			c-29.63-0.04-59.26,0.03-88.89-0.04c20.15-87.29,40.32-174.57,60.45-261.87C270.81,72.13,277.05,59.53,286.58,50.02z
			 M279.49,133.76c-8.41,36.69-16.92,73.35-25.28,110.05c14.19,0.55,27.66-10.53,30.33-24.38c1.4-6.15,2.86-12.28,4.26-18.43
			c19.03-0.03,38.07,0.05,57.1-0.04c7.15-0.07,14.06-3.44,18.46-9.09c6.88-7.84,7.78-18.6,10.3-28.28
			c1.61-6.19,3.3-13.03,0.46-19.14c-2.81-6.72-10-10.75-17.15-10.66C331.81,133.7,305.65,133.76,279.49,133.76z"/>
	</g>
	<path fill="#F36F21" d="M294.5,176.49c1.39-6.09,2.78-12.18,4.23-18.25c17.46,0.03,34.91-0.01,52.36,0.02
		c-1.4,6.08-2.82,12.16-4.22,18.24C329.41,176.49,311.96,176.51,294.5,176.49z"/>
</g>
<g>
	<g>
		<path fill="#0066B3" d="M130.2,87.7c9.89-5.85,21.4-8.68,32.85-8.7c29.52,0.01,59.03-0.03,88.54,0.02
			c-13.34,58.15-26.84,116.26-40.23,174.4c-7.47,24.8-31.25,44.13-57.35,45.05c-31.54,0.07-63.08,0.01-94.61,0.03
			c12.73-55.31,25.47-110.61,38.32-165.9C101.7,114.02,113.68,97.19,130.2,87.7z M132.03,136.73c-7.9,4.18-14.84,11.38-16.64,20.37
			c-6.6,28.91-13.28,57.8-19.93,86.7c14.12,0.58,27.56-10.41,30.29-24.18c1.4-6.13,2.84-12.24,4.25-18.36c13-0.01,26-0.02,39,0
			c14.36,0.58,28.16-10.62,30.66-24.74c-21.3-0.05-42.6,0-63.91-0.03c1.39-6,2.78-11.99,4.18-17.99
			c19.05,0.18,38.08-0.37,57.13-0.26c13.1-0.82,24.46-11.67,26.89-24.43c-24.32-0.15-48.64,0-72.96-0.07
			C144.59,133.86,137.82,133.57,132.03,136.73z"/>
	</g>
	<g>
		<path fill="#0066B3" d="M560.43,261.1c8.98-2.48,19.23,2.72,22.45,11.49c3.12,7.74,0.44,17.42-6.41,22.26
			c-5.77,4.35-14.05,4.9-20.39,1.46c-6.38-3.36-10.44-10.63-9.86-17.84C546.39,270.36,552.61,263,560.43,261.1z M561.37,264.97
			c-9.02,2.38-12.93,13.93-8.67,21.85c3.14,6.79,12.14,9.88,18.74,6.25c7.9-3.92,10.18-15.11,5.35-22.24
			C573.63,265.78,567.09,263.26,561.37,264.97z"/>
	</g>
	<g>
		<path fill="#0066B3" d="M557.78,268.74c4.08,0.25,8.29-0.53,12.3,0.48c5.91,1.64,4.64,11.77-1.62,11.88
			c1.96,3.02,3.79,6.12,5.68,9.17c-1.53-0.02-3.03-0.04-4.54-0.06c-1.84-3.02-3.47-6.19-5.52-9.07c-0.52-0.07-1.55-0.2-2.06-0.26
			c-0.02,3.14-0.03,6.28-0.03,9.43c-1.46-0.07-2.91-0.13-4.35-0.22C557.89,282.98,557.66,275.86,557.78,268.74z M562,271.99
			c-0.01,1.92,0,3.85,0,5.77c2.62-0.09,7.83,0.9,7.53-3.19C569.21,271.03,564.47,272.17,562,271.99z"/>
	</g>
</g>
<g>
	<g>
		<path fill="#0DB14B" d="M446.4,89.89c10.43-7.05,22.96-10.79,35.53-10.87c29.8-0.04,59.6-0.02,89.4-0.01
			c-12.59,54.69-25.28,109.35-37.86,164.03c-1.71,8.08-4.56,15.97-8.85,23.04c-11.06,18.73-31.66,31.83-53.57,32.41
			c-30.65,0-61.29,0.04-91.93-0.02c12.78-55.63,25.65-111.25,38.49-166.87C421.63,114.79,431.93,99.46,446.4,89.89z M434.01,134
			c-1.22,5.68-0.92,12.08,2.59,16.93c3.2,4.67,8.73,7.39,14.35,7.52c6.09,0.14,12.18,0,18.28,0.05
			c-6.55,28.43-13.07,56.86-19.63,85.28c14.1,0.59,27.61-10.38,30.28-24.18c4.71-20.37,9.43-40.74,14.18-61.1
			c13.58-0.02,27.16,0.04,40.75-0.03c1.08-5.32,1.09-11.23-1.87-15.97c-3.06-5.21-8.97-8.53-15-8.51
			C489.97,134.01,461.99,134,434.01,134z"/>
	</g>
</g>
<g>
	<path fill="#FFFFFF" d="M132.03,136.73c5.79-3.16,12.56-2.87,18.96-2.99c24.32,0.07,48.64-0.08,72.96,0.07
		c-2.43,12.76-13.79,23.61-26.89,24.43c-19.05-0.11-38.08,0.44-57.13,0.26c-1.4,6-2.79,11.99-4.18,17.99
		c21.31,0.03,42.61-0.02,63.91,0.03c-2.5,14.12-16.3,25.32-30.66,24.74c-13-0.02-26-0.01-39,0c-1.41,6.12-2.85,12.23-4.25,18.36
		c-2.73,13.77-16.17,24.76-30.29,24.18c6.65-28.9,13.33-57.79,19.93-86.7C117.19,148.11,124.13,140.91,132.03,136.73z"/>
	<g>
		<path fill="#FFFFFF" d="M279.49,133.76c26.16,0,52.32-0.06,78.48,0.03c7.15-0.09,14.34,3.94,17.15,10.66
			c2.84,6.11,1.15,12.95-0.46,19.14c-2.52,9.68-3.42,20.44-10.3,28.28c-4.4,5.65-11.31,9.02-18.46,9.09
			c-19.03,0.09-38.07,0.01-57.1,0.04c-1.4,6.15-2.86,12.28-4.26,18.43c-2.67,13.85-16.14,24.93-30.33,24.38
			C262.57,207.11,271.08,170.45,279.49,133.76z M294.5,176.49c17.46,0.02,34.91,0,52.37,0.01c1.4-6.08,2.82-12.16,4.22-18.24
			c-17.45-0.03-34.9,0.01-52.36-0.02C297.28,164.31,295.89,170.4,294.5,176.49z"/>
	</g>
	<path fill="#FFFFFF" d="M434.01,134c27.98,0,55.96,0.01,83.93-0.01c6.03-0.02,11.94,3.3,15,8.51c2.96,4.74,2.95,10.65,1.87,15.97
		c-13.59,0.07-27.17,0.01-40.75,0.03c-4.75,20.36-9.47,40.73-14.18,61.1c-2.67,13.8-16.18,24.77-30.28,24.18
		c6.56-28.42,13.08-56.85,19.63-85.28c-6.1-0.05-12.19,0.09-18.28-0.05c-5.62-0.13-11.15-2.85-14.35-7.52
		C433.09,146.08,432.79,139.68,434.01,134z"/>
</g>
</svg>
